<mxfile host="Electron" modified="2024-03-27T14:53:52.480Z" agent="Mozilla/5.0 (Windows NT 10.0; Win64; x64) AppleWebKit/537.36 (KHTML, like Gecko) draw.io/24.0.4 Chrome/120.0.6099.109 Electron/28.1.0 Safari/537.36" etag="BU9acrUipmsvXaIKMgGk" version="24.0.4" type="device">
  <diagram name="Page-1" id="FZs9Rn_XKdIv1l-SygIM">
    <mxGraphModel dx="3457" dy="1520" grid="1" gridSize="10" guides="1" tooltips="1" connect="1" arrows="1" fold="1" page="1" pageScale="1" pageWidth="850" pageHeight="1100" math="0" shadow="0">
      <root>
        <mxCell id="0" />
        <mxCell id="1" parent="0" />
        <mxCell id="JxNKZMtmzF6hPREQpPzR-44" value="" style="rounded=1;whiteSpace=wrap;html=1;fillColor=#d5e8d4;strokeColor=#82b366;" vertex="1" parent="1">
          <mxGeometry x="-160" y="160" width="640" height="460" as="geometry" />
        </mxCell>
        <mxCell id="JxNKZMtmzF6hPREQpPzR-47" value="" style="rounded=1;whiteSpace=wrap;html=1;fillColor=#f8cecc;strokeColor=#b85450;" vertex="1" parent="1">
          <mxGeometry x="-160" y="620" width="640" height="180" as="geometry" />
        </mxCell>
        <mxCell id="JxNKZMtmzF6hPREQpPzR-45" value="Untitled Layer" parent="0" />
        <mxCell id="JxNKZMtmzF6hPREQpPzR-49" value="" style="rounded=1;whiteSpace=wrap;html=1;fillColor=#d5e8d4;strokeColor=#82b366;" vertex="1" parent="JxNKZMtmzF6hPREQpPzR-45">
          <mxGeometry x="560" y="160" width="640" height="460" as="geometry" />
        </mxCell>
        <mxCell id="JxNKZMtmzF6hPREQpPzR-50" value="" style="rounded=1;whiteSpace=wrap;html=1;fillColor=#f8cecc;strokeColor=#b85450;" vertex="1" parent="JxNKZMtmzF6hPREQpPzR-45">
          <mxGeometry x="560" y="620" width="640" height="180" as="geometry" />
        </mxCell>
        <mxCell id="JxNKZMtmzF6hPREQpPzR-51" value="&lt;font style=&quot;font-size: 36px;&quot;&gt;&lt;b&gt;Classes&lt;/b&gt;&lt;/font&gt;" style="text;html=1;align=center;verticalAlign=middle;whiteSpace=wrap;rounded=0;" vertex="1" parent="JxNKZMtmzF6hPREQpPzR-45">
          <mxGeometry x="840" y="180" width="80" height="40" as="geometry" />
        </mxCell>
        <mxCell id="JxNKZMtmzF6hPREQpPzR-52" value="&lt;b style=&quot;font-size: 36px;&quot;&gt;Individues&lt;/b&gt;" style="text;html=1;align=center;verticalAlign=middle;whiteSpace=wrap;rounded=0;" vertex="1" parent="JxNKZMtmzF6hPREQpPzR-45">
          <mxGeometry x="840" y="750" width="80" height="40" as="geometry" />
        </mxCell>
        <mxCell id="JxNKZMtmzF6hPREQpPzR-7" style="rounded=0;orthogonalLoop=1;jettySize=auto;html=1;exitX=0;exitY=1;exitDx=0;exitDy=0;entryX=0.5;entryY=0;entryDx=0;entryDy=0;" edge="1" parent="JxNKZMtmzF6hPREQpPzR-45" source="JxNKZMtmzF6hPREQpPzR-2" target="JxNKZMtmzF6hPREQpPzR-3">
          <mxGeometry relative="1" as="geometry" />
        </mxCell>
        <mxCell id="JxNKZMtmzF6hPREQpPzR-8" style="rounded=0;orthogonalLoop=1;jettySize=auto;html=1;exitX=1;exitY=1;exitDx=0;exitDy=0;entryX=1;entryY=0.5;entryDx=0;entryDy=0;" edge="1" parent="JxNKZMtmzF6hPREQpPzR-45" source="JxNKZMtmzF6hPREQpPzR-2" target="JxNKZMtmzF6hPREQpPzR-4">
          <mxGeometry relative="1" as="geometry" />
        </mxCell>
        <mxCell id="JxNKZMtmzF6hPREQpPzR-2" value="" style="ellipse;whiteSpace=wrap;html=1;aspect=fixed;" vertex="1" parent="JxNKZMtmzF6hPREQpPzR-45">
          <mxGeometry x="120" y="240" width="80" height="80" as="geometry" />
        </mxCell>
        <mxCell id="JxNKZMtmzF6hPREQpPzR-9" style="rounded=0;orthogonalLoop=1;jettySize=auto;html=1;exitX=0.25;exitY=1;exitDx=0;exitDy=0;entryX=0.5;entryY=0;entryDx=0;entryDy=0;" edge="1" parent="JxNKZMtmzF6hPREQpPzR-45" source="JxNKZMtmzF6hPREQpPzR-3" target="JxNKZMtmzF6hPREQpPzR-5">
          <mxGeometry relative="1" as="geometry" />
        </mxCell>
        <mxCell id="JxNKZMtmzF6hPREQpPzR-10" style="rounded=0;orthogonalLoop=1;jettySize=auto;html=1;exitX=0.75;exitY=1;exitDx=0;exitDy=0;entryX=0.5;entryY=0;entryDx=0;entryDy=0;" edge="1" parent="JxNKZMtmzF6hPREQpPzR-45" source="JxNKZMtmzF6hPREQpPzR-3" target="JxNKZMtmzF6hPREQpPzR-6">
          <mxGeometry relative="1" as="geometry" />
        </mxCell>
        <mxCell id="JxNKZMtmzF6hPREQpPzR-3" value="" style="whiteSpace=wrap;html=1;aspect=fixed;" vertex="1" parent="JxNKZMtmzF6hPREQpPzR-45">
          <mxGeometry x="-40" y="400" width="80" height="80" as="geometry" />
        </mxCell>
        <mxCell id="JxNKZMtmzF6hPREQpPzR-13" style="rounded=0;orthogonalLoop=1;jettySize=auto;html=1;exitX=0;exitY=0.25;exitDx=0;exitDy=0;entryX=0.5;entryY=0;entryDx=0;entryDy=0;" edge="1" parent="JxNKZMtmzF6hPREQpPzR-45" source="JxNKZMtmzF6hPREQpPzR-4" target="JxNKZMtmzF6hPREQpPzR-11">
          <mxGeometry relative="1" as="geometry" />
        </mxCell>
        <mxCell id="JxNKZMtmzF6hPREQpPzR-14" style="rounded=0;orthogonalLoop=1;jettySize=auto;html=1;exitX=0;exitY=0.75;exitDx=0;exitDy=0;entryX=0.5;entryY=0;entryDx=0;entryDy=0;" edge="1" parent="JxNKZMtmzF6hPREQpPzR-45" source="JxNKZMtmzF6hPREQpPzR-4" target="JxNKZMtmzF6hPREQpPzR-12">
          <mxGeometry relative="1" as="geometry" />
        </mxCell>
        <mxCell id="JxNKZMtmzF6hPREQpPzR-4" value="" style="triangle;whiteSpace=wrap;html=1;rotation=-90;" vertex="1" parent="JxNKZMtmzF6hPREQpPzR-45">
          <mxGeometry x="280" y="400" width="80" height="80" as="geometry" />
        </mxCell>
        <mxCell id="JxNKZMtmzF6hPREQpPzR-5" value="&lt;font style=&quot;font-size: 36px;&quot;&gt;&lt;b&gt;White&lt;/b&gt;&lt;/font&gt;" style="text;html=1;align=center;verticalAlign=middle;whiteSpace=wrap;rounded=0;" vertex="1" parent="JxNKZMtmzF6hPREQpPzR-45">
          <mxGeometry x="-120" y="560" width="80" height="40" as="geometry" />
        </mxCell>
        <mxCell id="JxNKZMtmzF6hPREQpPzR-6" value="&lt;font style=&quot;font-size: 36px;&quot;&gt;&lt;b&gt;Black&lt;/b&gt;&lt;/font&gt;" style="text;html=1;align=center;verticalAlign=middle;whiteSpace=wrap;rounded=0;" vertex="1" parent="JxNKZMtmzF6hPREQpPzR-45">
          <mxGeometry x="40" y="560" width="80" height="40" as="geometry" />
        </mxCell>
        <mxCell id="JxNKZMtmzF6hPREQpPzR-11" value="&lt;font style=&quot;font-size: 36px;&quot;&gt;&lt;b&gt;White&lt;/b&gt;&lt;/font&gt;" style="text;html=1;align=center;verticalAlign=middle;whiteSpace=wrap;rounded=0;" vertex="1" parent="JxNKZMtmzF6hPREQpPzR-45">
          <mxGeometry x="200" y="560" width="80" height="40" as="geometry" />
        </mxCell>
        <mxCell id="JxNKZMtmzF6hPREQpPzR-12" value="&lt;font style=&quot;font-size: 36px;&quot;&gt;&lt;b&gt;Black&lt;/b&gt;&lt;/font&gt;" style="text;html=1;align=center;verticalAlign=middle;whiteSpace=wrap;rounded=0;" vertex="1" parent="JxNKZMtmzF6hPREQpPzR-45">
          <mxGeometry x="360" y="560" width="80" height="40" as="geometry" />
        </mxCell>
        <mxCell id="JxNKZMtmzF6hPREQpPzR-15" value="&lt;b&gt;&lt;font style=&quot;font-size: 100px;&quot;&gt;=&lt;/font&gt;&lt;/b&gt;" style="text;html=1;align=center;verticalAlign=middle;whiteSpace=wrap;rounded=0;" vertex="1" parent="JxNKZMtmzF6hPREQpPzR-45">
          <mxGeometry x="490" y="425" width="60" height="30" as="geometry" />
        </mxCell>
        <mxCell id="JxNKZMtmzF6hPREQpPzR-17" style="rounded=0;orthogonalLoop=1;jettySize=auto;html=1;exitX=0;exitY=1;exitDx=0;exitDy=0;entryX=0.5;entryY=0;entryDx=0;entryDy=0;" edge="1" parent="JxNKZMtmzF6hPREQpPzR-45" source="JxNKZMtmzF6hPREQpPzR-19">
          <mxGeometry relative="1" as="geometry">
            <mxPoint x="720" y="400" as="targetPoint" />
          </mxGeometry>
        </mxCell>
        <mxCell id="JxNKZMtmzF6hPREQpPzR-18" style="rounded=0;orthogonalLoop=1;jettySize=auto;html=1;exitX=1;exitY=1;exitDx=0;exitDy=0;entryX=1;entryY=0.5;entryDx=0;entryDy=0;" edge="1" parent="JxNKZMtmzF6hPREQpPzR-45" source="JxNKZMtmzF6hPREQpPzR-19">
          <mxGeometry relative="1" as="geometry">
            <mxPoint x="1040" y="400" as="targetPoint" />
          </mxGeometry>
        </mxCell>
        <mxCell id="JxNKZMtmzF6hPREQpPzR-19" value="" style="ellipse;whiteSpace=wrap;html=1;aspect=fixed;" vertex="1" parent="JxNKZMtmzF6hPREQpPzR-45">
          <mxGeometry x="840" y="240" width="80" height="80" as="geometry" />
        </mxCell>
        <mxCell id="JxNKZMtmzF6hPREQpPzR-20" style="rounded=0;orthogonalLoop=1;jettySize=auto;html=1;exitX=0.25;exitY=1;exitDx=0;exitDy=0;entryX=0.5;entryY=0;entryDx=0;entryDy=0;" edge="1" parent="JxNKZMtmzF6hPREQpPzR-45" source="JxNKZMtmzF6hPREQpPzR-30" target="JxNKZMtmzF6hPREQpPzR-32">
          <mxGeometry relative="1" as="geometry">
            <mxPoint x="700" y="480" as="sourcePoint" />
            <mxPoint x="640" y="560" as="targetPoint" />
          </mxGeometry>
        </mxCell>
        <mxCell id="JxNKZMtmzF6hPREQpPzR-21" style="rounded=0;orthogonalLoop=1;jettySize=auto;html=1;exitX=0.75;exitY=1;exitDx=0;exitDy=0;entryX=1;entryY=0.5;entryDx=0;entryDy=0;" edge="1" parent="JxNKZMtmzF6hPREQpPzR-45" source="JxNKZMtmzF6hPREQpPzR-30" target="JxNKZMtmzF6hPREQpPzR-33">
          <mxGeometry relative="1" as="geometry">
            <mxPoint x="740" y="480" as="sourcePoint" />
            <mxPoint x="800" y="560" as="targetPoint" />
          </mxGeometry>
        </mxCell>
        <mxCell id="JxNKZMtmzF6hPREQpPzR-23" style="rounded=0;orthogonalLoop=1;jettySize=auto;html=1;exitX=0.25;exitY=1;exitDx=0;exitDy=0;entryX=0.5;entryY=0;entryDx=0;entryDy=0;" edge="1" parent="JxNKZMtmzF6hPREQpPzR-45" source="JxNKZMtmzF6hPREQpPzR-31" target="JxNKZMtmzF6hPREQpPzR-34">
          <mxGeometry relative="1" as="geometry">
            <mxPoint x="1020" y="480" as="sourcePoint" />
            <mxPoint x="960" y="560" as="targetPoint" />
          </mxGeometry>
        </mxCell>
        <mxCell id="JxNKZMtmzF6hPREQpPzR-24" style="rounded=0;orthogonalLoop=1;jettySize=auto;html=1;exitX=0.75;exitY=1;exitDx=0;exitDy=0;entryX=1;entryY=0.5;entryDx=0;entryDy=0;" edge="1" parent="JxNKZMtmzF6hPREQpPzR-45" source="JxNKZMtmzF6hPREQpPzR-31" target="JxNKZMtmzF6hPREQpPzR-35">
          <mxGeometry relative="1" as="geometry">
            <mxPoint x="1060" y="480" as="sourcePoint" />
            <mxPoint x="1120" y="560" as="targetPoint" />
          </mxGeometry>
        </mxCell>
        <mxCell id="JxNKZMtmzF6hPREQpPzR-30" value="&lt;font style=&quot;font-size: 36px;&quot;&gt;&lt;b&gt;White&lt;/b&gt;&lt;/font&gt;" style="text;html=1;align=center;verticalAlign=middle;whiteSpace=wrap;rounded=0;" vertex="1" parent="JxNKZMtmzF6hPREQpPzR-45">
          <mxGeometry x="680" y="400" width="80" height="40" as="geometry" />
        </mxCell>
        <mxCell id="JxNKZMtmzF6hPREQpPzR-31" value="&lt;font style=&quot;font-size: 36px;&quot;&gt;&lt;b&gt;Black&lt;/b&gt;&lt;/font&gt;" style="text;html=1;align=center;verticalAlign=middle;whiteSpace=wrap;rounded=0;" vertex="1" parent="JxNKZMtmzF6hPREQpPzR-45">
          <mxGeometry x="1000" y="400" width="80" height="40" as="geometry" />
        </mxCell>
        <mxCell id="JxNKZMtmzF6hPREQpPzR-32" value="" style="whiteSpace=wrap;html=1;aspect=fixed;" vertex="1" parent="JxNKZMtmzF6hPREQpPzR-45">
          <mxGeometry x="600" y="520" width="80" height="80" as="geometry" />
        </mxCell>
        <mxCell id="JxNKZMtmzF6hPREQpPzR-33" value="" style="triangle;whiteSpace=wrap;html=1;rotation=-90;" vertex="1" parent="JxNKZMtmzF6hPREQpPzR-45">
          <mxGeometry x="760" y="520" width="80" height="80" as="geometry" />
        </mxCell>
        <mxCell id="JxNKZMtmzF6hPREQpPzR-34" value="" style="whiteSpace=wrap;html=1;aspect=fixed;" vertex="1" parent="JxNKZMtmzF6hPREQpPzR-45">
          <mxGeometry x="920" y="520" width="80" height="80" as="geometry" />
        </mxCell>
        <mxCell id="JxNKZMtmzF6hPREQpPzR-35" value="" style="triangle;whiteSpace=wrap;html=1;rotation=-90;" vertex="1" parent="JxNKZMtmzF6hPREQpPzR-45">
          <mxGeometry x="1080" y="520" width="80" height="80" as="geometry" />
        </mxCell>
        <mxCell id="JxNKZMtmzF6hPREQpPzR-36" value="" style="whiteSpace=wrap;html=1;aspect=fixed;" vertex="1" parent="JxNKZMtmzF6hPREQpPzR-45">
          <mxGeometry x="-120" y="640" width="80" height="80" as="geometry" />
        </mxCell>
        <mxCell id="JxNKZMtmzF6hPREQpPzR-37" value="" style="whiteSpace=wrap;html=1;aspect=fixed;fillColor=#000000;" vertex="1" parent="JxNKZMtmzF6hPREQpPzR-45">
          <mxGeometry x="40" y="640" width="80" height="80" as="geometry" />
        </mxCell>
        <mxCell id="JxNKZMtmzF6hPREQpPzR-38" value="" style="triangle;whiteSpace=wrap;html=1;rotation=-90;" vertex="1" parent="JxNKZMtmzF6hPREQpPzR-45">
          <mxGeometry x="190" y="640" width="80" height="80" as="geometry" />
        </mxCell>
        <mxCell id="JxNKZMtmzF6hPREQpPzR-39" value="" style="triangle;whiteSpace=wrap;html=1;rotation=-90;fillColor=#000000;" vertex="1" parent="JxNKZMtmzF6hPREQpPzR-45">
          <mxGeometry x="360" y="640" width="80" height="80" as="geometry" />
        </mxCell>
        <mxCell id="JxNKZMtmzF6hPREQpPzR-40" value="" style="triangle;whiteSpace=wrap;html=1;rotation=-90;fillColor=#000000;" vertex="1" parent="JxNKZMtmzF6hPREQpPzR-45">
          <mxGeometry x="1080" y="640" width="80" height="80" as="geometry" />
        </mxCell>
        <mxCell id="JxNKZMtmzF6hPREQpPzR-41" value="" style="triangle;whiteSpace=wrap;html=1;rotation=-90;" vertex="1" parent="JxNKZMtmzF6hPREQpPzR-45">
          <mxGeometry x="760" y="640" width="80" height="80" as="geometry" />
        </mxCell>
        <mxCell id="JxNKZMtmzF6hPREQpPzR-42" value="" style="whiteSpace=wrap;html=1;aspect=fixed;" vertex="1" parent="JxNKZMtmzF6hPREQpPzR-45">
          <mxGeometry x="600" y="640" width="80" height="80" as="geometry" />
        </mxCell>
        <mxCell id="JxNKZMtmzF6hPREQpPzR-43" value="" style="whiteSpace=wrap;html=1;aspect=fixed;fillColor=#000000;" vertex="1" parent="JxNKZMtmzF6hPREQpPzR-45">
          <mxGeometry x="920" y="640" width="80" height="80" as="geometry" />
        </mxCell>
        <mxCell id="JxNKZMtmzF6hPREQpPzR-46" value="&lt;font style=&quot;font-size: 36px;&quot;&gt;&lt;b&gt;Classes&lt;/b&gt;&lt;/font&gt;" style="text;html=1;align=center;verticalAlign=middle;whiteSpace=wrap;rounded=0;" vertex="1" parent="JxNKZMtmzF6hPREQpPzR-45">
          <mxGeometry x="120" y="180" width="80" height="40" as="geometry" />
        </mxCell>
        <mxCell id="JxNKZMtmzF6hPREQpPzR-48" value="&lt;font style=&quot;font-size: 36px;&quot;&gt;&lt;b&gt;Individues&lt;/b&gt;&lt;/font&gt;" style="text;html=1;align=center;verticalAlign=middle;whiteSpace=wrap;rounded=0;" vertex="1" parent="JxNKZMtmzF6hPREQpPzR-45">
          <mxGeometry x="120" y="750" width="80" height="40" as="geometry" />
        </mxCell>
      </root>
    </mxGraphModel>
  </diagram>
</mxfile>
